# Blender v3.6.2 OBJ File: 'goal_case.blend'
# www.blender.org
mtllib goal_case.mtl
o goal_case_Cube
v 0.048146 0.091428 -0.056252
v -0.100741 0.083956 0.069890
v -0.100741 -0.047969 -0.062035
v -0.100741 0.083956 -0.062035
v 0.048146 0.091428 0.041245
v 0.100741 0.083956 0.069890
v -0.048146 0.091428 -0.056252
v 0.100741 -0.047969 -0.062035
v 0.100741 0.083956 -0.062035
v -0.048146 0.091428 0.041245
v 0.048146 0.070975 0.041245
v -0.048146 0.070975 0.041245
v -0.100741 0.092013 0.069890
v -0.100741 0.092013 -0.062035
v -0.008000 0.070975 0.041245
v 0.100741 0.092013 -0.062035
v 0.100741 0.092013 0.069890
v 0.010000 0.070975 0.041245
v -0.110741 0.083956 0.069890
v -0.110741 0.083956 -0.062035
v -0.110741 -0.047969 -0.062035
v 0.110741 0.083956 -0.062035
v 0.110741 -0.047969 -0.062035
v 0.110741 0.083956 0.069890
v 0.105741 -0.097466 -0.012538
v 0.105741 0.034459 0.119387
v -0.105741 0.034459 0.119387
v -0.105741 -0.097466 -0.012538
v -0.115741 0.034459 0.119387
v -0.115741 -0.097466 -0.012538
v 0.115741 -0.097466 -0.012538
v 0.115741 0.034459 0.119387
v 0.100741 0.078134 0.064068
v 0.105741 0.029565 0.114494
v -0.100741 0.078317 0.064251
v -0.105741 0.029741 0.114669
v 0.060999 0.078688 0.062890
v 0.060999 0.084510 0.068712
v 0.065999 0.030119 0.113316
v 0.065999 0.035013 0.118210
v -0.065964 0.035064 0.118159
v -0.060964 0.084561 0.068662
v -0.060964 0.078922 0.063023
v -0.065964 0.030345 0.113441
v 0.048146 -0.042186 -0.056252
v -0.048146 -0.042186 -0.056252
v -0.048146 0.055311 0.041245
v -0.008000 0.070975 0.056909
v -0.018077 0.055311 0.041245
v 0.048146 0.055311 0.041245
v 0.010000 0.070975 0.056909
v 0.020078 0.055311 0.041245
vt 0.564267 0.654948
vt 0.298535 0.654948
vt 0.298535 0.389216
vt 0.564267 0.389216
vt 0.596820 0.641759
vt 0.596820 0.376027
vt 0.610009 0.376027
vt 0.610009 0.641759
vt 0.564267 0.641756
vt 0.564344 0.376027
vt 0.580544 0.376027
vt 0.580466 0.641756
vt 0.388691 0.742065
vt 0.351673 0.742065
vt 0.351673 0.938449
vt 0.282305 0.950099
vt 0.282305 0.696094
vt 0.282305 0.684366
vt 0.548038 0.684366
vt 0.548038 0.950099
vt 0.478670 0.938449
vt 0.478670 0.742065
vt 0.439013 0.742065
vt 0.425723 0.710513
vt 0.401982 0.710513
vt 0.623198 0.445394
vt 0.634847 0.376027
vt 0.634847 0.641759
vt 0.623198 0.572392
vt 0.994410 0.631165
vt 0.728678 0.631165
vt 0.728678 0.365433
vt 0.994410 0.365433
vt 0.596743 0.376027
vt 0.580621 0.641756
vt 0.580544 0.376027
vt 0.282305 0.654948
vt 0.282305 0.389216
vt 0.140541 0.000520
vt 0.328240 0.188619
vt 0.140541 0.376027
vt 0.564267 0.668137
vt 0.298535 0.668137
vt 0.072749 0.849016
vt 0.085909 0.848145
vt 0.085909 0.948064
vt 0.072749 0.948935
vt 0.623198 0.376027
vt 0.623198 0.641759
vt 0.610009 0.641759
vt 0.610009 0.376027
vt 0.515939 0.000520
vt 0.515939 0.376027
vt 0.328240 0.188619
vt 0.298535 0.376027
vt 0.564267 0.376027
vt 0.676263 0.730866
vt 0.663074 0.730866
vt 0.656479 0.631165
vt 0.669668 0.631165
vt 0.715535 0.009504
vt 0.715535 0.000000
vt 0.728724 0.000000
vt 0.728724 0.265732
vt 0.715535 0.265732
vt 0.669668 0.375291
vt 0.656479 0.365433
vt 0.669668 0.365433
vt 0.000000 0.375507
vt 0.000000 -0.000000
vt 0.125016 0.742783
vt 0.138176 0.743653
vt 0.138176 0.843572
vt 0.125016 0.842701
vt 0.722130 0.365433
vt 0.708941 0.365433
vt 0.656480 -0.000000
vt 0.656480 0.375507
vt 0.282305 0.378668
vt 0.282305 0.737603
vt 0.141153 0.737605
vt 0.141153 0.376027
vt 0.000000 0.738103
vt -0.000000 0.378647
vt 0.141153 0.376027
vt 0.141153 0.738105
vt 0.663074 0.011978
vt 0.663074 0.002474
vt 0.676263 0.476862
vt 0.722083 0.377662
vt 0.728678 0.479234
vt 0.634847 0.376027
vt 0.651419 0.376027
vt 0.648778 0.517180
vt 0.634849 0.517180
vt 0.138137 0.843572
vt 0.138137 0.943491
vt 0.575613 0.641756
vt 0.587329 0.642286
vt 0.587329 0.694755
vt 0.575613 0.694225
vt 0.722083 0.367805
vt 0.634847 0.517180
vt 0.650898 0.517180
vt 0.650896 0.658332
vt 0.637467 0.658332
vt 0.708941 0.111060
vt 0.656480 0.113534
vt 0.564267 0.642291
vt 0.575613 0.641756
vt 0.575613 0.694276
vt 0.564267 0.694811
vt 0.072749 0.838023
vt 0.072749 0.738105
vt 0.548038 0.668137
vt 0.282305 0.668137
vt 0.728724 0.072615
vt 0.728724 0.041122
vt 0.728724 0.000000
vt 0.925106 0.000057
vt 0.925106 0.268693
vt 0.000000 0.865102
vt 0.000000 0.738105
vt 0.041198 0.738105
vt 0.041198 0.788414
vt 0.041198 0.812155
vt 0.041198 0.865102
vt 0.728678 0.899858
vt 0.728678 0.631222
vt 0.925060 0.631165
vt 0.925060 0.672287
vt 0.925060 0.703780
vt 0.601681 1.000000
vt 0.601681 0.730866
vt 0.728678 0.730866
vt 0.728678 1.000000
vt 0.141153 0.933989
vt 0.141153 0.737605
vt 0.268150 0.737605
vt 0.268150 0.933989
vt 0.072749 0.865102
vt 0.072749 0.825445
vt 0.628371 0.706370
vt 0.596820 0.674122
vt 0.628371 0.674069
vt 0.072749 0.738105
vt 0.072749 0.775123
vt 0.596883 0.674069
vt 0.596820 0.641768
vt 0.628371 0.641759
vt 0.652112 0.674069
vt 0.652112 0.705621
vt 0.628371 0.705621
vt 0.628371 0.674069
vn 0.0000 0.0000 -1.0000
vn 0.0000 1.0000 0.0000
vn -1.0000 0.0000 0.0000
vn -0.0000 -0.7071 0.7071
vn 1.0000 0.0000 0.0000
vn 0.0000 0.7071 0.7071
vn 0.0000 -0.7071 -0.7071
vn -0.9975 0.0504 -0.0504
vn 0.9975 0.0504 -0.0504
vn -0.9975 -0.0504 0.0504
vn 0.9975 -0.0504 0.0504
vn 0.0326 -0.7067 0.7067
vn 0.0105 -0.7197 -0.6942
vn -0.0111 0.7065 0.7076
vn 0.0308 0.7068 -0.7068
vn -0.0308 -0.7068 0.7068
vn -0.0105 -0.7196 -0.6943
vn -0.0326 0.7067 -0.7067
vn 0.0111 0.7065 0.7076
vn 0.0000 0.0000 1.0000
vn 0.0000 -1.0000 0.0000
vn -0.8410 -0.5411 0.0000
vn 0.8410 -0.5410 0.0000
usemtl Material
s off
f 3/1/1 4/2/1 9/3/1 8/4/1
f 9/5/2 6/6/2 24/7/2 22/8/2
f 4/9/3 2/10/3 13/11/3 14/12/3
f 52/13/4 50/14/4 45/15/4 8/16/4 33/17/4 6/18/4 2/19/4 3/20/4 46/21/4 47/22/4 49/23/4 48/24/4 51/25/4
f 46/26/4 3/27/4 8/28/4 45/29/4
f 16/30/2 14/31/2 13/32/2 17/33/2
f 6/34/5 9/5/5 16/35/5 17/36/5
f 9/3/1 4/2/1 14/37/1 16/38/1
f 19/39/3 20/40/3 21/41/3
f 4/2/1 3/1/1 21/42/1 20/43/1
f 24/44/6 6/45/6 26/46/6 32/47/6
f 2/48/2 4/49/2 20/50/2 19/51/2
f 24/52/5 23/53/5 22/54/5
f 8/4/1 9/3/1 22/55/1 23/56/1
f 8/57/7 23/58/7 31/59/7 25/60/7
f 36/61/4 27/62/4 29/63/4 30/64/4 28/65/4
f 34/66/4 25/60/4 31/59/4 32/67/4 26/68/4
f 19/39/8 21/41/8 30/69/8 29/70/8
f 2/71/6 19/72/6 29/73/6 27/74/6
f 21/75/7 3/76/7 28/65/7 30/64/7
f 23/53/9 24/52/9 32/77/9 31/78/9
f 33/79/10 8/80/10 25/81/10 34/82/10
f 3/83/11 35/84/11 36/85/11 28/86/11
f 27/62/12 36/61/12 44/87/12 41/88/12
f 33/89/13 34/66/13 39/90/13 37/91/13
f 38/92/10 37/93/10 39/94/10 40/95/10
f 26/46/14 6/45/14 38/96/14 40/97/14
f 6/98/15 33/99/15 37/100/15 38/101/15
f 34/66/16 26/68/16 40/102/16 39/90/16
f 43/103/11 42/104/11 41/105/11 44/106/11
f 36/61/17 35/107/17 43/108/17 44/87/17
f 35/109/18 2/110/18 42/111/18 43/112/18
f 2/71/19 27/74/19 41/113/19 42/114/19
f 13/115/20 2/19/20 6/18/20 17/116/20
f 50/117/3 11/118/3 5/119/3 1/120/3 45/121/3
f 10/122/1 5/123/1 11/124/1 18/125/1 15/126/1 12/127/1
f 46/128/5 7/129/5 10/130/5 12/131/5 47/132/5
f 45/133/20 1/134/20 7/135/20 46/136/20
f 1/137/21 5/138/21 10/139/21 7/140/21
f 47/141/1 12/127/1 15/126/1 49/142/1
f 52/143/22 51/144/22 18/145/22
f 18/125/1 11/124/1 50/146/1 52/147/1
f 49/148/23 15/149/23 48/150/23
f 48/151/21 15/152/21 18/153/21 51/154/21
