# Blender v3.6.2 OBJ File: 'plate.blend'
# www.blender.org
mtllib plate.mtl
o plate_Cube.001
v 0.063085 0.023917 0.000378
v 0.023809 0.063373 0.000378
v 0.023809 -0.063373 0.000378
v 0.063085 -0.023917 0.000378
v 0.036809 0.098508 0.065946
v 0.098060 0.036977 0.065946
v 0.098060 -0.036977 0.065946
v 0.036809 -0.098508 0.065946
v -0.023809 0.063373 0.000378
v -0.063085 0.023917 0.000378
v -0.063085 -0.023917 0.000378
v -0.023809 -0.063373 0.000378
v -0.098060 0.036977 0.065946
v -0.036809 0.098508 0.065946
v -0.036809 -0.098508 0.065946
v -0.098060 -0.036977 0.065946
v 0.036259 0.096512 0.033162
v 0.096073 0.036424 0.033162
v 0.036259 -0.096512 0.033162
v 0.096073 -0.036424 0.033162
v -0.036259 0.096512 0.033162
v -0.096073 0.036424 0.033162
v -0.036259 -0.096512 0.033162
v -0.096073 -0.036424 0.033162
v 0.103482 0.039233 0.065946
v 0.039055 0.103955 0.065946
v 0.039055 -0.103955 0.065946
v 0.103482 -0.039233 0.065946
v -0.039055 0.103955 0.065946
v -0.103482 0.039233 0.065946
v -0.103482 -0.039233 0.065946
v -0.039055 -0.103955 0.065946
v 0.092583 0.034912 0.033509
v 0.034753 0.093006 0.033509
v 0.034753 -0.093006 0.033509
v 0.092583 -0.034912 0.033509
v -0.034753 0.093006 0.033509
v -0.092583 0.034912 0.033509
v -0.092583 -0.034912 0.033509
v -0.034753 -0.093006 0.033509
vt 0.529081 0.997669
vt 0.590343 0.936407
vt 0.590343 0.835347
vt 0.529081 0.774086
vt 0.428021 0.774086
vt 0.366760 0.835347
vt 0.366760 0.936407
vt 0.428021 0.997669
vt 0.465998 0.198344
vt 0.484680 0.004034
vt 0.423209 -0.000000
vt 0.372382 0.192201
vt 0.534002 0.575742
vt 0.515320 0.770052
vt 0.576791 0.774086
vt 0.627618 0.581885
vt 0.260333 0.199894
vt 0.266268 0.388506
vt 0.366760 0.377870
vt 0.353629 0.190019
vt 0.360015 0.388506
vt 0.175241 0.398198
vt 0.165777 0.487620
vt 0.349990 0.483218
vt 0.106427 0.199894
vt 0.233910 0.006484
vt 0.132850 0.006484
vt 0.005935 0.577118
vt 0.159842 0.577118
vt 0.165777 0.388506
vt 0.000000 0.388506
vt 0.619782 0.192201
vt 0.467596 0.387043
vt 0.633240 0.380426
vt 0.380218 0.581885
vt 0.414340 0.774086
vt 0.071588 0.000000
vt 0.013130 0.190019
vt 0.100492 0.388506
vt -0.000000 0.377870
vt 0.532404 0.387043
vt 0.366760 0.393660
vt 0.585660 -0.000000
vt 0.032358 0.770528
vt 0.133418 0.770528
vt 0.295171 -0.000000
vt 0.633240 0.393660
vt 0.366760 0.380426
vt 0.737818 0.356894
vt 0.733732 0.366760
vt 0.899508 0.366760
vt 0.895422 0.356894
vt 0.643106 0.104578
vt 0.633240 0.100491
vt 0.633240 0.266268
vt 0.643106 0.262182
vt 0.990134 0.262181
vt 1.000000 0.266268
vt 1.000000 0.100491
vt 0.990134 0.104578
vt 0.895422 0.009866
vt 0.899508 -0.000000
vt 0.733732 -0.000000
vt 0.737818 0.009866
vt 0.871463 0.694404
vt 0.960885 0.604982
vt 0.960885 0.456182
vt 0.871463 0.366760
vt 0.722662 0.366760
vt 0.633240 0.456182
vt 0.633240 0.604982
vt 0.722662 0.694404
vt 0.165777 0.988018
vt 0.350266 0.973915
vt 0.357592 0.884292
vt 0.173536 0.893093
vt -0.000000 0.770528
vt 0.004401 0.954742
vt 0.153202 0.954742
vt 0.157603 0.770528
vt 0.354037 0.735534
vt 0.169771 0.735534
vt 0.349990 0.640822
vt 0.165777 0.636420
vt 0.175241 0.725843
vt 0.360015 0.735534
vt 0.633240 0.946888
vt 0.817729 0.932785
vt 0.825055 0.843163
vt 0.641000 0.851963
vt 0.821501 0.694405
vt 0.637235 0.694405
vn -0.0000 0.0000 -1.0000
vn -0.7049 0.0000 -0.7093
vn 0.0000 -0.7033 -0.7109
vn 0.9754 0.0000 -0.2204
vn 0.0000 0.9859 0.1672
vn 0.5056 0.5033 -0.7008
vn 0.6921 -0.6889 -0.2154
vn -0.6921 0.6889 -0.2154
vn -0.5056 -0.5033 -0.7008
vn 0.0000 0.7033 -0.7109
vn 0.0000 0.9752 -0.2214
vn -0.6921 -0.6889 -0.2154
vn -0.5056 0.5033 -0.7008
vn 0.5056 -0.5033 -0.7008
vn 0.6921 0.6889 -0.2154
vn 0.7049 0.0000 -0.7093
vn 0.0000 -0.9752 -0.2214
vn -0.9754 0.0000 -0.2204
vn -0.0000 0.0000 1.0000
vn 0.0000 -0.9859 0.1672
vn 0.6993 -0.6961 0.1624
vn -0.6993 -0.6961 0.1624
vn 0.9860 0.0000 0.1665
vn -0.9860 0.0000 0.1665
vn 0.6993 0.6961 0.1624
vn -0.6993 0.6961 0.1624
usemtl Material.001
s off
f 9/1/1 2/2/1 1/3/1 4/4/1 3/5/1 12/6/1 11/7/1 10/8/1
f 22/9/2 10/10/2 11/11/2 24/12/2
f 23/13/3 12/14/3 3/15/3 19/16/3
f 18/17/4 25/18/4 28/19/4 20/20/4
f 8/21/5 35/22/5 40/23/5 15/24/5
f 17/25/6 18/17/6 1/26/6 2/27/6
f 19/28/7 20/29/7 28/30/7 27/31/7
f 21/32/8 22/9/8 30/33/8 29/34/8
f 23/13/9 24/35/9 11/36/9 12/14/9
f 17/25/10 2/27/10 9/37/10 21/38/10
f 26/39/11 17/25/11 21/38/11 29/40/11
f 32/41/12 31/42/12 24/35/12 23/13/12
f 9/43/13 10/10/13 22/9/13 21/32/13
f 3/44/14 4/45/14 20/29/14 19/28/14
f 26/39/15 25/18/15 18/17/15 17/25/15
f 1/26/16 18/17/16 20/20/16 4/46/16
f 32/41/17 23/13/17 19/16/17 27/47/17
f 30/33/18 22/9/18 24/12/18 31/48/18
f 6/49/19 25/50/19 26/51/19 5/52/19
f 8/53/19 27/54/19 28/55/19 7/56/19
f 14/57/19 29/58/19 30/59/19 13/60/19
f 16/61/19 31/62/19 32/63/19 15/64/19
f 5/52/19 26/51/19 29/58/19 14/57/19
f 7/56/19 28/55/19 25/50/19 6/49/19
f 15/64/19 32/63/19 27/54/19 8/53/19
f 13/60/19 30/59/19 31/62/19 16/61/19
f 34/65/19 37/66/19 38/67/19 39/68/19 40/69/19 35/70/19 36/71/19 33/72/19
f 14/73/20 37/74/20 34/75/20 5/76/20
f 13/77/21 38/78/21 37/79/21 14/80/21
f 5/76/22 34/75/22 33/81/22 6/82/22
f 16/83/23 39/84/23 38/85/23 13/86/23
f 6/87/24 33/88/24 36/89/24 7/90/24
f 15/24/25 40/23/25 39/84/25 16/83/25
f 7/90/26 36/89/26 35/91/26 8/92/26
