# Blender 4.5.8 LTS
# www.blender.org
mtllib cup_case.mtl
o cup_case
v -0.084076 -0.077509 0.067730
v -0.084076 0.072418 0.067730
v -0.069076 -0.062509 0.003713
v -0.057740 -0.047299 0.016460
v -0.069076 0.057418 0.003713
v -0.057740 0.046572 0.016460
v 0.043659 -0.077509 0.067730
v 0.043659 0.072418 0.067730
v 0.043659 -0.062509 0.003713
v 0.032368 -0.047299 0.016460
v 0.043659 0.057418 0.003713
v 0.032368 0.046572 0.016460
v 0.032368 -0.007888 0.016460
v 0.032368 0.008539 0.016460
v 0.043659 0.036487 0.067730
v 0.043659 -0.037327 0.067730
v 0.032368 -0.062299 0.067730
v 0.032368 -0.037327 0.067730
v 0.032368 0.036487 0.067730
v 0.032368 0.061572 0.067730
v -0.074240 -0.062555 0.067730
v -0.074240 0.061669 0.067730
v -0.076576 -0.062509 0.035722
v -0.084076 0.061669 0.067730
v -0.084076 -0.062555 0.067730
v -0.069076 -0.047811 0.003713
v -0.069076 0.046766 0.003713
v -0.090375 0.046766 0.053288
v -0.090375 -0.047811 0.053288
v 0.032368 -0.025834 0.059194
v 0.032368 -0.024240 0.057924
v 0.032368 -0.022606 0.056454
v 0.032368 -0.020958 0.054809
v 0.032368 -0.019325 0.053016
v 0.032368 -0.017735 0.051106
v 0.032368 -0.016215 0.049112
v 0.032368 -0.014792 0.047068
v 0.032368 -0.013488 0.045009
v 0.032368 -0.012328 0.042971
v 0.032368 -0.011330 0.040987
v 0.032368 -0.010512 0.039092
v 0.043659 -0.025834 0.059194
v 0.043659 -0.010512 0.039092
v 0.043659 -0.011330 0.040987
v 0.043659 -0.012328 0.042971
v 0.043659 -0.013488 0.045009
v 0.043659 -0.014792 0.047068
v 0.043659 -0.016215 0.049112
v 0.043659 -0.017735 0.051106
v 0.043659 -0.019325 0.053016
v 0.043659 -0.020958 0.054809
v 0.043659 -0.022606 0.056454
v 0.043659 -0.024240 0.057924
v 0.032368 0.027492 0.060813
v 0.032368 0.011368 0.039055
v 0.032368 0.012141 0.040914
v 0.032368 0.013077 0.042860
v 0.032368 0.014161 0.044866
v 0.032368 0.015379 0.046901
v 0.032368 0.016711 0.048937
v 0.032368 0.018139 0.050944
v 0.032368 0.019642 0.052892
v 0.032368 0.021198 0.054753
v 0.032368 0.022784 0.056500
v 0.032368 0.024377 0.058108
v 0.032368 0.025954 0.059552
v 0.043659 0.027492 0.060813
v 0.043659 0.025954 0.059552
v 0.043659 0.024377 0.058108
v 0.043659 0.022784 0.056500
v 0.043659 0.021198 0.054753
v 0.043659 0.019642 0.052892
v 0.043659 0.018139 0.050944
v 0.043659 0.016711 0.048937
v 0.043659 0.015379 0.046901
v 0.043659 0.014161 0.044866
v 0.043659 0.013077 0.042860
v 0.043659 0.012141 0.040914
v 0.043659 0.011368 0.039055
v 0.032368 0.007112 0.037312
v 0.032368 0.010823 0.038603
v 0.032368 0.009203 0.035446
v 0.032368 0.008056 0.037410
v 0.032368 0.009092 0.037690
v 0.032368 0.010064 0.038109
v 0.043659 0.010823 0.038603
v 0.043659 0.007112 0.037312
v 0.043659 0.010064 0.038109
v 0.043659 0.009092 0.037690
v 0.043659 0.008056 0.037410
v 0.032368 -0.009797 0.038495
v 0.032368 -0.006432 0.037319
v 0.032368 -0.008347 0.035626
v 0.032368 -0.009109 0.038045
v 0.032368 -0.008228 0.037664
v 0.032368 -0.007287 0.037408
v 0.043659 -0.006432 0.037319
v 0.043659 -0.009797 0.038495
v 0.043659 -0.007287 0.037408
v 0.043659 -0.008228 0.037664
v 0.043659 -0.009109 0.038045
v -0.083448 -0.076625 0.067271
v -0.083405 0.071542 0.067303
v -0.068540 -0.061774 0.004398
v -0.058176 -0.047930 0.015657
v -0.068514 0.056688 0.004387
v -0.058176 0.047203 0.015657
v 0.042976 -0.076735 0.067185
v 0.042961 0.071654 0.067189
v 0.042949 -0.061891 0.004372
v 0.033096 -0.047892 0.015799
v 0.042935 0.056805 0.004363
v 0.033096 0.047166 0.015799
v 0.033238 -0.007888 0.015725
v 0.033238 0.008539 0.015725
v 0.042878 0.036816 0.066980
v 0.042876 -0.037648 0.066979
v 0.032947 -0.062948 0.067006
v 0.033151 -0.037648 0.066979
v 0.033149 0.036816 0.066980
v 0.032947 0.062221 0.067007
v -0.074239 -0.063291 0.066910
v -0.074239 0.062405 0.066910
v -0.075849 -0.061598 0.036003
v -0.083291 0.062180 0.067064
v -0.083292 -0.063069 0.067065
v -0.068355 -0.047713 0.004550
v -0.068356 0.046666 0.004551
v -0.089492 0.047393 0.052811
v -0.089491 -0.048445 0.052818
v 0.033233 -0.026400 0.058642
v 0.033229 -0.024839 0.057394
v 0.033230 -0.023237 0.055955
v 0.033231 -0.021616 0.054337
v 0.033232 -0.020007 0.052571
v 0.033232 -0.018438 0.050686
v 0.033232 -0.016937 0.048718
v 0.033232 -0.015531 0.046700
v 0.033232 -0.014246 0.044668
v 0.033231 -0.013103 0.042659
v 0.033230 -0.012123 0.040709
v 0.033180 -0.011265 0.038665
v 0.042794 -0.026400 0.058642
v 0.042846 -0.011265 0.038665
v 0.042796 -0.012123 0.040709
v 0.042796 -0.013103 0.042659
v 0.042795 -0.014246 0.044668
v 0.042795 -0.015531 0.046700
v 0.042795 -0.016937 0.048718
v 0.042795 -0.018438 0.050686
v 0.042795 -0.020007 0.052571
v 0.042796 -0.021616 0.054337
v 0.042796 -0.023237 0.055955
v 0.042797 -0.024839 0.057394
v 0.033233 0.028068 0.060269
v 0.033179 0.012124 0.038630
v 0.033231 0.012938 0.040646
v 0.033232 0.013858 0.042561
v 0.033232 0.014927 0.044539
v 0.033232 0.016129 0.046549
v 0.033233 0.017445 0.048561
v 0.033233 0.018857 0.050545
v 0.033232 0.020342 0.052470
v 0.033232 0.021879 0.054308
v 0.033232 0.023443 0.056031
v 0.033231 0.025012 0.057613
v 0.033230 0.026559 0.059029
v 0.042793 0.028068 0.060269
v 0.042797 0.026559 0.059029
v 0.042796 0.025012 0.057613
v 0.042795 0.023443 0.056031
v 0.042795 0.021879 0.054308
v 0.042794 0.020342 0.052470
v 0.042794 0.018857 0.050545
v 0.042794 0.017445 0.048561
v 0.042794 0.016129 0.046549
v 0.042795 0.014927 0.044539
v 0.042795 0.013858 0.042561
v 0.042796 0.012938 0.040646
v 0.042848 0.012124 0.038630
v 0.033254 0.007162 0.036594
v 0.033254 0.011362 0.038055
v 0.033598 0.009203 0.035446
v 0.033264 0.008228 0.036714
v 0.033260 0.009400 0.037027
v 0.033264 0.010496 0.037503
v 0.042805 0.011383 0.038033
v 0.042805 0.007164 0.036566
v 0.042814 0.010522 0.037467
v 0.042811 0.009416 0.036992
v 0.042814 0.008238 0.036673
v 0.033254 -0.010337 0.037948
v 0.033254 -0.006482 0.036600
v 0.033598 -0.008347 0.035626
v 0.033264 -0.009542 0.037441
v 0.033260 -0.008537 0.037001
v 0.033264 -0.007461 0.036713
v 0.042805 -0.006484 0.036572
v 0.042805 -0.010358 0.037927
v 0.042814 -0.007471 0.036671
v 0.042811 -0.008553 0.036966
v 0.042814 -0.009568 0.037404
vn -0.9213 0.2708 -0.2789
vn -0.0000 0.9736 -0.2281
vn -0.0000 -0.0000 1.0000
vn -0.0303 -0.9716 -0.2348
vn -0.0000 -0.0000 -1.0000
vn -0.9231 -0.2663 -0.2776
vn -0.9188 -0.0000 -0.3948
vn 0.7484 -0.0000 0.6632
vn -0.0012 0.9592 0.2828
vn -0.0000 0.9585 0.2852
vn 0.5313 0.6977 0.4805
vn -0.0005 -0.9595 0.2816
vn -0.0000 -0.9593 0.2825
vn 0.5379 -0.6928 0.4803
vn -0.0000 0.6231 0.7822
vn -0.0000 0.6687 0.7435
vn -0.0000 0.7066 0.7076
vn -0.0000 0.7394 0.6733
vn -0.0000 0.7685 0.6398
vn -0.0000 0.7953 0.6062
vn -0.0000 0.8206 0.5716
vn -0.0000 0.8450 0.5348
vn -0.0000 0.8691 0.4947
vn -0.0000 0.8934 0.4494
vn -0.0000 0.9181 0.3964
vn -0.0000 0.5962 0.8028
vn -0.0000 -0.9232 0.3842
vn -0.0000 -0.9012 0.4333
vn -0.0000 -0.8796 0.4756
vn -0.0000 -0.8583 0.5132
vn -0.0000 -0.8368 0.5476
vn -0.0000 -0.8148 0.5798
vn -0.0000 -0.7918 0.6108
vn -0.0000 -0.7672 0.6414
vn -0.0000 -0.7404 0.6722
vn -0.0000 -0.7103 0.7039
vn -0.0000 -0.6754 0.7374
vn -0.0000 -0.6338 0.7735
vn -0.0000 -0.6096 0.7927
vn -1.0000 -0.0000 -0.0000
vn -0.0000 -0.1033 0.9947
vn -0.0000 -0.2605 0.9655
vn -0.0000 -0.3958 0.9183
vn -0.0000 -0.5455 0.8381
vn -0.0000 -0.6389 0.7693
vn -0.0000 0.5474 0.8369
vn -0.0000 0.3974 0.9176
vn -0.0000 0.2619 0.9651
vn -0.0000 0.1044 0.9945
vn -0.0000 0.0005 1.0000
vn -0.0000 0.6408 0.7677
vn 1.0000 -0.0000 -0.0000
vn 0.9162 -0.2792 0.2876
vn 0.0011 -0.9732 0.2300
vn 0.0010 0.0251 -0.9997
vn 0.0011 -0.0000 -1.0000
vn 0.0323 0.9710 0.2369
vn 0.0015 0.0001 1.0000
vn 0.9165 0.2786 0.2871
vn 0.9160 -0.0000 0.4012
vn 0.0006 -0.0171 -0.9999
vn -0.7647 -0.0000 -0.6444
vn 0.0022 -0.9587 -0.2843
vn -0.0284 -0.9550 -0.2951
vn -0.5478 -0.6913 -0.4712
vn 0.0014 0.9591 -0.2830
vn -0.0288 0.9558 -0.2925
vn -0.5544 0.6863 -0.4708
vn -0.0000 -0.6242 -0.7813
vn -0.0000 -0.6684 -0.7438
vn -0.0000 -0.7064 -0.7078
vn -0.0000 -0.7393 -0.6734
vn -0.0000 -0.7685 -0.6399
vn -0.0000 -0.7953 -0.6062
vn -0.0000 -0.8206 -0.5715
vn -0.0000 -0.8450 -0.5347
vn -0.0000 -0.8692 -0.4945
vn -0.0000 -0.8935 -0.4491
vn -0.0000 -0.9221 -0.3869
vn -0.0000 -0.5955 -0.8034
vn -0.0000 0.9273 -0.3743
vn -0.0000 0.9014 -0.4331
vn -0.0000 0.8797 -0.4755
vn -0.0000 0.8583 -0.5131
vn -0.0000 0.8368 -0.5475
vn -0.0000 0.8148 -0.5798
vn -0.0000 0.7917 -0.6108
vn -0.0000 0.7672 -0.6414
vn -0.0000 0.7403 -0.6723
vn -0.0000 0.7101 -0.7041
vn -0.0000 0.6751 -0.7377
vn -0.0000 0.6349 -0.7726
vn -0.0000 0.6087 -0.7934
vn 0.9726 -0.0343 0.2299
vn 0.9751 -0.0545 0.2150
vn 0.9706 -0.0984 0.2195
vn 0.9572 -0.1483 0.2487
vn -0.0037 0.1056 -0.9944
vn -0.0042 0.2597 -0.9657
vn -0.0043 0.3966 -0.9180
vn -0.0039 0.5434 -0.8395
vn -0.0015 0.6146 -0.7889
vn 1.0000 0.0074 -0.0006
vn 0.9423 0.1725 0.2870
vn 0.9612 0.1131 0.2514
vn 0.9672 0.0629 0.2460
vn 0.9637 0.0394 0.2641
vn -0.0039 -0.5451 -0.8384
vn -0.0043 -0.3983 -0.9172
vn -0.0042 -0.2610 -0.9653
vn -0.0037 -0.1069 -0.9943
vn 1.0000 -0.0000 -0.0022
vn 1.0000 -0.0072 -0.0006
vn -0.0029 -0.0005 -1.0000
vn -0.0016 -0.6211 -0.7838
vn -1.0000 -0.0001 -0.0016
vt 0.307275 0.000000
vt 0.515934 0.041260
vt 0.515934 0.070568
vt 0.352790 0.070583
vt 0.307275 0.029575
vt 0.307275 0.412494
vt 0.504066 0.412519
vt 0.504066 0.715056
vt 0.307275 0.755286
vt 0.227500 0.642448
vt 0.297598 0.642448
vt 0.297598 0.672747
vt 0.197191 0.672747
vt 0.197191 0.329955
vt 0.227229 0.329955
vt 0.227229 0.356351
vt 0.749669 0.412494
vt 0.749669 0.670761
vt 0.504066 0.670761
vt 0.504066 0.562329
vt 0.504066 0.517133
vt 0.504066 0.412494
vt 0.197191 0.369612
vt 0.197191 0.672139
vt 0.000000 0.672736
vt 0.000000 0.329955
vt 0.095230 0.349618
vt 0.000000 0.289518
vt 0.000000 0.029308
vt 0.000000 0.000000
vt 0.307275 0.329955
vt 0.000000 0.329955
vt 0.515934 0.371215
vt 0.411605 0.371220
vt 0.307275 0.371352
vt 0.352790 0.330794
vt 0.515934 0.330778
vt 0.958214 0.026396
vt 0.958214 0.000000
vt 1.000000 0.000000
vt 1.000000 0.342792
vt 0.887716 0.342792
vt 0.887716 0.312492
vt 0.957498 0.312492
vt 0.000000 0.931537
vt 0.000000 0.673270
vt 0.118857 0.672736
vt 0.118857 0.932946
vt 0.919916 0.654311
vt 0.749670 0.698595
vt 0.749788 0.412499
vt 0.919916 0.412494
vt 0.749670 0.724991
vt 0.802468 0.741887
vt 0.674160 0.758191
vt 0.674160 1.000000
vt 0.504109 0.999882
vt 0.504066 0.713792
vt 0.504066 0.687397
vt 0.556759 0.670761
vt 0.704934 0.742945
vt 0.674160 0.742939
vt 0.674160 0.738235
vt 0.704934 0.738241
vt 0.674160 0.732883
vt 0.704934 0.732888
vt 0.674160 0.726974
vt 0.704934 0.726980
vt 0.674160 0.720610
vt 0.704934 0.720616
vt 0.674160 0.713900
vt 0.704934 0.713906
vt 0.674160 0.706958
vt 0.704934 0.706964
vt 0.674161 0.699904
vt 0.704934 0.699910
vt 0.674161 0.692858
vt 0.704935 0.692863
vt 0.674162 0.685940
vt 0.704936 0.685946
vt 0.674163 0.679269
vt 0.704936 0.679275
vt 0.674163 0.672959
vt 0.704937 0.672965
vt 0.674163 0.774933
vt 0.704937 0.774939
vt 0.735790 0.771794
vt 0.705017 0.771925
vt 0.705000 0.765754
vt 0.735772 0.765623
vt 0.704984 0.759236
vt 0.735757 0.759106
vt 0.704970 0.752467
vt 0.735743 0.752337
vt 0.704959 0.745545
vt 0.735731 0.745414
vt 0.704950 0.738570
vt 0.735722 0.738440
vt 0.704943 0.731646
vt 0.735715 0.731515
vt 0.704939 0.724871
vt 0.735711 0.724741
vt 0.704937 0.718347
vt 0.735710 0.718216
vt 0.704938 0.712166
vt 0.735711 0.712036
vt 0.704942 0.706421
vt 0.735714 0.706290
vt 0.704948 0.701194
vt 0.735721 0.701063
vt 0.704957 0.696561
vt 0.735730 0.696431
vt 0.705017 0.670891
vt 0.735790 0.670761
vt 0.820535 0.149836
vt 0.820219 0.147241
vt 0.826547 0.144085
vt 0.819318 0.144389
vt 0.817968 0.141715
vt 0.816376 0.139626
vt 0.149630 0.682943
vt 0.118857 0.682943
vt 0.118857 0.680348
vt 0.149630 0.680348
vt 0.118857 0.677497
vt 0.149630 0.677497
vt 0.118857 0.674824
vt 0.149630 0.674824
vt 0.118857 0.672736
vt 0.149630 0.672736
vt 0.735787 0.773452
vt 0.705014 0.773583
vt 0.722538 0.000000
vt 0.887716 0.041273
vt 0.887716 0.145912
vt 0.814920 0.138128
vt 0.808932 0.136000
vt 0.802662 0.133426
vt 0.796201 0.130442
vt 0.789642 0.127093
vt 0.783083 0.123427
vt 0.776618 0.119498
vt 0.770341 0.115363
vt 0.764345 0.111082
vt 0.758717 0.106718
vt 0.753538 0.102335
vt 0.748884 0.097996
vt 0.744824 0.093764
vt 0.722538 0.069017
vt 0.816724 0.196357
vt 0.818174 0.194465
vt 0.825968 0.192370
vt 0.819403 0.192041
vt 0.820225 0.189454
vt 0.820515 0.187099
vt 0.149630 0.729467
vt 0.118857 0.729467
vt 0.118857 0.727573
vt 0.149630 0.727573
vt 0.118857 0.725148
vt 0.149630 0.725148
vt 0.118857 0.722562
vt 0.149630 0.722562
vt 0.118857 0.720206
vt 0.149630 0.720206
vt 0.887716 0.191108
vt 0.750039 0.240479
vt 0.754128 0.236095
vt 0.758864 0.231597
vt 0.764166 0.227064
vt 0.769943 0.222572
vt 0.776096 0.218197
vt 0.782520 0.214016
vt 0.789104 0.210100
vt 0.795738 0.206514
vt 0.802306 0.203322
vt 0.808696 0.200577
vt 0.814800 0.198327
vt 0.887716 0.299539
vt 0.722538 0.340805
vt 0.722538 0.272100
vt 0.674163 0.670761
vt 0.704937 0.670766
vt 0.700213 0.123606
vt 0.696146 0.127837
vt 0.691484 0.132176
vt 0.686296 0.136559
vt 0.680658 0.140923
vt 0.674651 0.145204
vt 0.668364 0.149339
vt 0.661888 0.153268
vt 0.655317 0.156933
vt 0.648747 0.160282
vt 0.642274 0.163266
vt 0.635993 0.165841
vt 0.629995 0.167969
vt 0.628536 0.169466
vt 0.626941 0.171555
vt 0.625589 0.174229
vt 0.624686 0.177081
vt 0.624370 0.179676
vt 0.624390 0.216939
vt 0.624680 0.219294
vt 0.625503 0.221881
vt 0.626735 0.224305
vt 0.628187 0.226198
vt 0.630115 0.228167
vt 0.636229 0.230417
vt 0.642631 0.233162
vt 0.649211 0.236355
vt 0.655855 0.239940
vt 0.662452 0.243857
vt 0.668887 0.248038
vt 0.675050 0.252413
vt 0.680837 0.256905
vt 0.686148 0.261439
vt 0.690893 0.265936
vt 0.694989 0.270320
vt 0.722538 0.301942
vt 0.722538 0.412494
vt 0.515934 0.371225
vt 0.515934 0.041269
vt 0.722538 0.098859
s 0
usemtl cup_case_texture
f 2/1/1 5/2/1 27/3/1 28/4/1 24/5/1
f 8/6/2 11/7/2 5/8/2 2/9/2
f 20/10/3 19/11/3 15/12/3 8/13/3 2/14/3 24/15/3 22/16/3
f 6/17/3 4/18/3 10/19/3 13/20/3 14/21/3 12/22/3
f 3/23/4 9/24/4 7/25/4 1/26/4 23/27/4
f 26/28/5 27/29/5 5/30/5 11/1/5 9/31/5 3/32/5
f 3/33/6 23/34/6 1/6/6 25/35/6 29/36/6 26/37/6
f 29/36/7 28/4/7 27/3/7 26/37/7
f 21/38/3 25/39/3 1/40/3 7/41/3 16/42/3 18/43/3 17/44/3
f 4/45/8 6/46/8 28/47/8 29/48/8
f 4/49/9 21/50/9 17/51/9 10/52/9
f 21/50/10 4/49/10 25/53/10
f 29/54/11 25/53/11 4/49/11
f 6/55/12 12/56/12 20/57/12 22/58/12
f 22/58/13 24/59/13 6/55/13
f 28/60/14 6/55/14 24/59/14
f 30/61/15 42/62/15 53/63/15 31/64/15
f 31/64/16 53/63/16 52/65/16 32/66/16
f 32/66/17 52/65/17 51/67/17 33/68/17
f 33/68/18 51/67/18 50/69/18 34/70/18
f 34/70/19 50/69/19 49/71/19 35/72/19
f 35/72/20 49/71/20 48/73/20 36/74/20
f 36/74/21 48/73/21 47/75/21 37/76/21
f 37/76/22 47/75/22 46/77/22 38/78/22
f 38/78/23 46/77/23 45/79/23 39/80/23
f 39/80/24 45/79/24 44/81/24 40/82/24
f 40/82/25 44/81/25 43/83/25 41/84/25
f 16/85/26 42/62/26 30/61/26 18/86/26
f 55/87/27 79/88/27 78/89/27 56/90/27
f 56/90/28 78/89/28 77/91/28 57/92/28
f 57/92/29 77/91/29 76/93/29 58/94/29
f 58/94/30 76/93/30 75/95/30 59/96/30
f 59/96/31 75/95/31 74/97/31 60/98/31
f 60/98/32 74/97/32 73/99/32 61/100/32
f 61/100/33 73/99/33 72/101/33 62/102/33
f 62/102/34 72/101/34 71/103/34 63/104/34
f 63/104/35 71/103/35 70/105/35 64/106/35
f 64/106/36 70/105/36 69/107/36 65/108/36
f 65/108/37 69/107/37 68/109/37 66/110/37
f 66/110/38 68/109/38 67/111/38 54/112/38
f 54/112/39 67/111/39 15/113/39 19/114/39
f 80/115/40 83/116/40 82/117/40
f 83/116/40 84/118/40 82/117/40
f 84/118/40 85/119/40 82/117/40
f 85/119/40 81/120/40 82/117/40
f 80/121/41 87/122/41 90/123/41 83/124/41
f 83/124/42 90/123/42 89/125/42 84/126/42
f 84/126/43 89/125/43 88/127/43 85/128/43
f 85/128/44 88/127/44 86/129/44 81/130/44
f 81/131/45 86/132/45 79/88/45 55/87/45
f 20/133/40 12/134/40 14/135/40 82/117/40 81/120/40 55/136/40 56/137/40 57/138/40 58/139/40 59/140/40 60/141/40 61/142/40 62/143/40 63/144/40 64/145/40 65/146/40 66/147/40 54/148/40 19/149/40
f 91/150/40 94/151/40 93/152/40
f 94/151/40 95/153/40 93/152/40
f 95/153/40 96/154/40 93/152/40
f 96/154/40 92/155/40 93/152/40
f 91/156/46 98/157/46 101/158/46 94/159/46
f 94/159/47 101/158/47 100/160/47 95/161/47
f 95/161/48 100/160/48 99/162/48 96/163/48
f 96/163/49 99/162/49 97/164/49 92/165/49
f 80/115/40 82/117/40 14/135/40 13/166/40 93/152/40 92/155/40
f 30/167/40 31/168/40 32/169/40 33/170/40 34/171/40 35/172/40 36/173/40 37/174/40 38/175/40 39/176/40 40/177/40 41/178/40 91/150/40 93/152/40 13/166/40 10/179/40 17/180/40 18/181/40
f 87/122/50 80/121/50 92/165/50 97/164/50
f 98/182/51 91/183/51 41/84/51 43/83/51
f 67/184/52 68/185/52 69/186/52 70/187/52 71/188/52 72/189/52 73/190/52 74/191/52 75/192/52 76/193/52 77/194/52 78/195/52 79/196/52 86/197/52 88/198/52 89/199/52 90/200/52 87/201/52 97/202/52 99/203/52 100/204/52 101/205/52 98/206/52 43/207/52 44/208/52 45/209/52 46/210/52 47/211/52 48/212/52 49/213/52 50/214/52 51/215/52 52/216/52 53/217/52 42/218/52 16/219/52 7/220/52 9/221/52 11/222/52 8/133/52 15/223/52
f 103/1/53 125/5/53 129/4/53 128/3/53 106/2/53
f 109/6/54 103/9/54 106/8/54 112/7/54
f 121/10/55 123/16/55 125/15/55 103/14/55 109/13/55 116/12/55 120/11/55
f 107/17/56 113/22/56 115/21/56 114/20/56 111/19/56 105/18/56
f 104/23/57 124/27/57 102/26/57 108/25/57 110/24/57
f 127/28/58 104/32/58 110/31/58 112/1/58 106/30/58 128/29/58
f 104/33/59 127/37/59 130/36/59 126/35/59 102/6/59 124/34/59
f 130/36/60 127/37/60 128/3/60 129/4/60
f 122/38/61 118/44/61 119/43/61 117/42/61 108/41/61 102/40/61 126/39/61
f 105/45/62 130/48/62 129/47/62 107/46/62
f 105/49/63 111/52/63 118/51/63 122/50/63
f 122/50/64 126/53/64 105/49/64
f 130/54/65 105/49/65 126/53/65
f 107/55/66 123/58/66 121/57/66 113/56/66
f 123/58/67 107/55/67 125/59/67
f 129/60/68 125/59/68 107/55/68
f 131/61/69 132/64/69 154/63/69 143/62/69
f 132/64/70 133/66/70 153/65/70 154/63/70
f 133/66/71 134/68/71 152/67/71 153/65/71
f 134/68/72 135/70/72 151/69/72 152/67/72
f 135/70/73 136/72/73 150/71/73 151/69/73
f 136/72/74 137/74/74 149/73/74 150/71/74
f 137/74/75 138/76/75 148/75/75 149/73/75
f 138/76/76 139/78/76 147/77/76 148/75/76
f 139/78/77 140/80/77 146/79/77 147/77/77
f 140/80/78 141/82/78 145/81/78 146/79/78
f 141/82/79 142/84/79 144/83/79 145/81/79
f 117/85/80 119/86/80 131/61/80 143/62/80
f 156/87/81 157/90/81 179/89/81 180/88/81
f 157/90/82 158/92/82 178/91/82 179/89/82
f 158/92/83 159/94/83 177/93/83 178/91/83
f 159/94/84 160/96/84 176/95/84 177/93/84
f 160/96/85 161/98/85 175/97/85 176/95/85
f 161/98/86 162/100/86 174/99/86 175/97/86
f 162/100/87 163/102/87 173/101/87 174/99/87
f 163/102/88 164/104/88 172/103/88 173/101/88
f 164/104/89 165/106/89 171/105/89 172/103/89
f 165/106/90 166/108/90 170/107/90 171/105/90
f 166/108/91 167/110/91 169/109/91 170/107/91
f 167/110/92 155/112/92 168/111/92 169/109/92
f 155/112/93 120/114/93 116/113/93 168/111/93
f 181/115/94 183/117/94 184/116/94
f 184/116/95 183/117/95 185/118/95
f 185/118/96 183/117/96 186/119/96
f 186/119/97 183/117/97 182/120/97
f 181/121/98 184/124/98 191/123/98 188/122/98
f 184/124/99 185/126/99 190/125/99 191/123/99
f 185/126/100 186/128/100 189/127/100 190/125/100
f 186/128/101 182/130/101 187/129/101 189/127/101
f 182/131/102 156/87/102 180/88/102 187/132/102
f 121/133/103 120/149/103 155/148/103 167/147/103 166/146/103 165/145/103 164/144/103 163/143/103 162/142/103 161/141/103 160/140/103 159/139/103 158/138/103 157/137/103 156/136/103 182/120/103 183/117/103 115/135/103 113/134/103
f 192/150/104 194/152/104 195/151/104
f 195/151/105 194/152/105 196/153/105
f 196/153/106 194/152/106 197/154/106
f 197/154/107 194/152/107 193/155/107
f 192/156/108 195/159/108 202/158/108 199/157/108
f 195/159/109 196/161/109 201/160/109 202/158/109
f 196/161/110 197/163/110 200/162/110 201/160/110
f 197/163/111 193/165/111 198/164/111 200/162/111
f 181/115/112 193/155/112 194/152/112 114/166/112 115/135/112 183/117/112
f 131/167/113 119/181/113 118/180/113 111/179/113 114/166/113 194/152/113 192/150/113 142/178/113 141/177/113 140/176/113 139/175/113 138/174/113 137/173/113 136/172/113 135/171/113 134/170/113 133/169/113 132/168/113
f 188/122/114 198/164/114 193/165/114 181/121/114
f 199/182/115 144/83/115 142/84/115 192/183/115
f 168/184/116 116/223/116 109/133/116 112/222/116 110/221/116 108/220/116 117/219/116 143/218/116 154/217/116 153/216/116 152/215/116 151/214/116 150/213/116 149/212/116 148/211/116 147/210/116 146/209/116 145/208/116 144/207/116 199/206/116 202/205/116 201/204/116 200/203/116 198/202/116 188/201/116 191/200/116 190/199/116 189/198/116 187/197/116 180/196/116 179/195/116 178/194/116 177/193/116 176/192/116 175/191/116 174/190/116 173/189/116 172/188/116 171/187/116 170/186/116 169/185/116
