# Blender v3.6.2 OBJ File: 'plate_case.blend'
# www.blender.org
mtllib plate_case.mtl
o plate_case_Cube
v -0.100741 0.083956 0.069890
v -0.100741 -0.047969 -0.062035
v -0.100741 0.083956 -0.062035
v 0.100741 0.083956 0.069890
v 0.100741 -0.047969 -0.062035
v 0.100741 0.083956 -0.062035
v -0.100741 -0.047969 -0.062035
v -0.100741 0.083956 0.069890
v 0.100741 0.083956 0.069890
v 0.100741 -0.047969 -0.062035
v -0.100741 0.092013 0.069890
v -0.100741 0.092013 -0.062035
v 0.100741 0.092013 -0.062035
v 0.100741 0.092013 0.069890
v -0.100741 0.083956 0.069890
v -0.100741 0.083956 -0.062035
v -0.100741 -0.047969 -0.062035
v -0.100741 0.083956 0.069890
v -0.100741 -0.047969 -0.062035
v -0.110741 0.083956 0.069890
v -0.110741 0.083956 -0.062035
v -0.110741 -0.047969 -0.062035
v -0.110741 0.083956 0.069890
v -0.110741 -0.047969 -0.062035
v 0.110741 0.083956 -0.062035
v 0.110741 -0.047969 -0.062035
v 0.110741 0.083956 0.069890
v 0.110741 -0.047969 -0.062035
v 0.110741 0.083956 0.069890
v 0.105741 -0.097466 -0.012538
v 0.105741 0.034459 0.119387
v -0.105741 0.034459 0.119387
v -0.105741 -0.097466 -0.012538
v -0.115741 0.034459 0.119387
v -0.115741 -0.097466 -0.012538
v 0.115741 -0.097466 -0.012538
v 0.115741 0.034459 0.119387
v 0.100741 0.078134 0.064068
v 0.105741 0.029565 0.114494
v -0.100741 0.078317 0.064251
v -0.105741 0.029741 0.114669
v 0.100741 0.078134 0.064068
v 0.100741 0.083956 0.069890
v 0.105741 0.029565 0.114494
v 0.105741 0.034459 0.119387
v -0.105741 0.034459 0.119387
v -0.100741 0.083956 0.069890
v -0.100741 0.078317 0.064251
v -0.105741 0.029741 0.114669
v 0.060999 0.078688 0.062890
v 0.060999 0.084510 0.068712
v 0.065999 0.030119 0.113316
v 0.065999 0.035013 0.118210
v -0.065964 0.035064 0.118159
v -0.060964 0.084561 0.068662
v -0.060964 0.078922 0.063023
v -0.065964 0.030345 0.113441
vt 0.625000 0.750000
vt 0.625000 0.750000
vt 0.625000 1.000000
vt 0.625000 1.000000
vt 0.375000 0.250000
vt 0.625000 0.250000
vt 0.625000 0.500000
vt 0.375000 0.500000
vt 0.625000 0.750000
vt 0.625000 0.500000
vt 0.625000 1.000000
vt 0.625000 1.000000
vt 0.625000 0.000000
vt 0.625000 0.000000
vt 0.625000 0.250000
vt 0.125000 0.500000
vt 0.375000 0.500000
vt 0.375000 0.738967
vt 0.375000 0.750000
vt 0.125000 0.750000
vt 0.125000 0.500000
vt 0.625000 0.500000
vt 0.875000 0.500000
vt 0.875000 0.750000
vt 0.625000 0.750000
vt 0.125000 0.500000
vt 0.125000 0.500000
vt 0.125000 0.500000
vt 0.125000 0.500000
vt 0.625000 0.250000
vt 0.625000 0.000000
vt 0.125000 0.750000
vt 0.125000 0.739314
vt 0.375000 0.250000
vt 0.375000 0.250000
vt 0.625000 0.000000
vt 0.625000 0.000000
vt 0.625000 0.250000
vt 0.375000 0.250000
vt 0.625000 1.000000
vt 0.625000 1.000000
vt 0.625000 0.750000
vt 0.625000 0.750000
vt 0.625000 0.750000
vt 0.375000 0.500000
vt 0.375000 0.500000
vt 0.375000 0.500000
vt 0.375000 0.500000
vt 0.125000 0.500000
vt 0.125000 0.741059
vt 0.125000 0.750000
vt 0.125000 0.750000
vt 0.125000 0.500000
vt 0.375000 0.750000
vt 0.375000 0.740726
vt 0.375000 0.750000
vt 0.375000 0.250000
vt 0.625000 0.000000
vt 0.625000 1.000000
vt 0.625000 1.000000
vt 0.625000 0.750000
vt 0.625000 0.750000
vt 0.125000 0.739314
vt 0.125000 0.741059
vt 0.125000 0.750000
vt 0.125000 0.741059
vt 0.125000 0.750000
vt 0.375000 0.738967
vt 0.375000 0.740726
vt 0.375000 0.740726
vt 0.375000 0.738967
vt 0.125000 0.750000
vt 0.375000 0.750000
vt 0.375000 0.750000
vt 0.625000 1.000000
vt 0.625000 1.000000
vt 0.375000 0.750000
vt 0.375000 0.750000
vt 0.625000 0.750000
vt 0.625000 0.750000
vt 0.125000 0.739314
vt 0.125000 0.750000
vt 0.625000 1.000000
vt 0.625000 1.000000
vt 0.000000 0.000000
vt 0.000000 0.000000
vt 0.000000 0.000000
vt 0.000000 0.000000
vt 0.000000 0.000000
vt 0.000000 0.000000
vn 0.0000 0.0000 1.0000
vn 0.0000 0.0000 -1.0000
vn 0.0000 1.0000 0.0000
vn -1.0000 0.0000 0.0000
vn -0.0000 -0.7071 0.7071
vn 1.0000 0.0000 0.0000
vn 0.0000 0.7071 0.7071
vn 0.0000 -0.7071 -0.7071
vn -0.9975 0.0504 -0.0504
vn 0.9975 0.0504 -0.0504
vn -0.9975 -0.0504 0.0504
vn 0.9975 -0.0504 0.0504
vn 0.0326 -0.7067 0.7067
vn 0.0105 -0.7197 -0.6942
vn -0.0111 0.7065 0.7076
vn 0.0308 0.7068 -0.7068
vn -0.0308 -0.7068 0.7068
vn -0.0105 -0.7196 -0.6943
vn -0.0326 0.7067 -0.7067
vn 0.0111 0.7065 0.7076
usemtl Material
s off
f 9/1/1 4/2/1 1/3/1 8/4/1
f 2/5/2 3/6/2 6/7/2 5/8/2
f 6/7/3 4/2/3 27/9/3 25/10/3
f 8/4/1 1/3/1 15/11/1 18/12/1
f 3/6/4 1/13/4 11/14/4 12/15/4
f 7/16/5 10/17/5 38/18/5 9/19/5 8/20/5
f 2/21/1 5/8/1 10/17/1 7/16/1
f 13/22/3 12/23/3 11/24/3 14/25/3
f 4/2/6 6/7/6 13/22/6 14/25/6
f 6/7/2 3/6/2 12/15/2 13/22/2
f 17/26/1 19/27/1 24/28/1 22/29/1
f 1/13/1 3/6/1 16/30/1 15/31/1
f 2/21/1 7/16/1 19/27/1 17/26/1
f 7/16/6 8/20/6 18/32/6 40/33/6 19/27/6
f 3/6/1 2/5/1 17/34/1 16/30/1
f 24/35/4 23/36/4 20/37/4 21/38/4 22/39/4
f 16/30/2 17/34/2 22/39/2 21/38/2
f 18/12/1 15/11/1 20/40/1 23/41/1
f 29/42/7 9/1/7 31/43/7 37/44/7
f 15/31/3 16/30/3 21/38/3 20/37/3
f 26/45/6 25/10/6 27/9/6 29/42/6 28/46/6
f 4/2/1 9/1/1 29/42/1 27/9/1
f 10/17/1 5/8/1 26/45/1 28/46/1
f 5/8/2 6/7/2 25/10/2 26/45/2
f 10/17/8 28/46/8 36/47/8 30/48/8
f 33/49/5 41/50/5 32/51/5 34/52/5 35/53/5
f 31/54/5 39/55/5 30/48/5 36/47/5 37/56/5
f 23/36/9 24/35/9 35/57/9 34/58/9
f 18/12/7 23/41/7 34/59/7 32/60/7
f 24/28/8 19/27/8 33/49/8 35/53/8
f 31/43/1 9/1/1 43/61/1 45/62/1
f 28/46/10 29/42/10 37/44/10 36/47/10
f 38/18/11 10/17/11 30/48/11 39/55/11
f 41/50/1 40/33/1 48/63/1 49/64/1
f 19/27/12 40/33/12 41/50/12 33/49/12
f 46/65/13 49/64/13 57/66/13 54/67/13
f 42/68/14 44/69/14 52/70/14 50/71/14
f 40/33/1 18/32/1 47/72/1 48/63/1
f 39/55/1 31/54/1 45/73/1 44/69/1
f 32/51/1 41/50/1 49/64/1 46/65/1
f 38/18/1 39/55/1 44/69/1 42/68/1
f 9/19/1 38/18/1 42/68/1 43/74/1
f 18/12/1 32/60/1 46/75/1 47/76/1
f 51/77/11 50/71/11 52/70/11 53/78/11
f 45/62/15 43/61/15 51/79/15 53/80/15
f 43/74/16 42/68/16 50/71/16 51/77/16
f 44/69/17 45/73/17 53/78/17 52/70/17
f 56/81/12 55/82/12 54/67/12 57/66/12
f 49/64/18 48/63/18 56/81/18 57/66/18
f 48/63/19 47/72/19 55/82/19 56/81/19
f 47/76/20 46/75/20 54/83/20 55/84/20
f 1/85/1 9/86/1 8/87/1 4/88/1 14/89/1 11/90/1
