# Blender v3.6.2 OBJ File: 'cup.blend'
# www.blender.org
mtllib cup.mtl
o Cup_Cube.002
v -0.048026 -0.014986 0.120596
v -0.028265 -0.034495 0.120596
v -0.028265 0.034495 0.120596
v -0.048026 0.014986 0.120596
v -0.032011 -0.043424 0.017445
v -0.057071 -0.018685 0.017445
v -0.057071 0.018685 0.017445
v -0.032011 0.043424 0.017445
v 0.002096 -0.034495 0.120596
v 0.021857 -0.014986 0.120596
v 0.021857 0.014986 0.120596
v 0.002096 0.034495 0.120596
v 0.030902 -0.018685 0.017445
v 0.005842 -0.043424 0.017445
v 0.005842 0.043424 0.017445
v 0.030902 0.018685 0.017445
v -0.032011 -0.043424 0.120596
v -0.057071 -0.018685 0.120596
v -0.057071 0.018685 0.120596
v -0.032011 0.043424 0.120596
v 0.030902 -0.018685 0.120596
v 0.005842 -0.043424 0.120596
v 0.005842 0.043424 0.120596
v 0.030902 0.018685 0.120596
v -0.028265 -0.034495 0.024098
v -0.048026 -0.014986 0.024098
v -0.048026 0.014986 0.024098
v -0.028265 0.034495 0.024098
v 0.021857 -0.014986 0.024098
v 0.002096 -0.034495 0.024098
v 0.002096 0.034495 0.024098
v 0.021857 0.014986 0.024098
v 0.030902 -0.006811 0.120596
v 0.030902 -0.006811 0.017445
v 0.030902 0.008483 0.120596
v 0.030902 0.007577 0.017445
v 0.075548 -0.006811 0.120596
v 0.075548 0.008483 0.120596
v 0.032717 0.008404 0.111593
v 0.032751 0.007835 0.046749
v 0.066596 0.008404 0.111593
v 0.066629 0.007835 0.046749
v 0.033608 -0.006811 0.110406
v 0.033608 -0.006811 0.045607
v 0.067486 -0.006811 0.045607
v 0.067486 -0.006811 0.110406
v 0.030902 -0.003069 0.037663
v 0.032416 -0.006811 0.042108
v 0.030902 -0.006811 0.042108
v 0.030902 -0.006811 0.033219
v 0.031806 0.007794 0.042105
v 0.030902 0.004013 0.037662
v 0.030902 0.007716 0.033217
v 0.030902 0.007794 0.042105
v 0.075548 -0.006811 0.042108
v 0.075548 -0.003069 0.037663
v 0.075548 0.004013 0.037662
v 0.075548 0.007794 0.042105
vt 0.285052 0.570531
vt 0.349084 0.570866
vt 0.349081 0.837533
vt 0.285050 0.837199
vt 0.262351 0.862401
vt 0.239111 0.862401
vt 0.239111 0.717734
vt 0.262351 0.717734
vt 0.488905 0.285052
vt 0.366249 0.285051
vt 0.366252 0.000000
vt 0.488908 0.000001
vt 0.692671 0.570531
vt 0.570037 0.570531
vt 0.570037 0.285476
vt 0.692671 0.285476
vt 0.449893 0.285476
vt 0.488857 0.285476
vt 0.570037 0.366676
vt 0.570037 0.489332
vt 0.488857 0.570531
vt 0.366230 0.570531
vt 0.285050 0.489332
vt 0.285050 0.366676
vt 0.366230 0.285476
vt 0.402679 0.285476
vt 0.775416 0.285476
vt 0.775416 0.570531
vt 0.285050 0.285474
vt 0.285052 0.000423
vt 0.000000 0.714558
vt 0.000024 0.429722
vt 0.081396 0.432897
vt 0.081372 0.717734
vt 0.570107 0.000425
vt 0.570105 0.285476
vt 0.692764 0.285055
vt 0.570107 0.285055
vt 0.570107 0.000000
vt 0.692764 0.000000
vt 0.255743 0.093339
vt 0.191713 0.029307
vt 0.203852 0.000000
vt 0.285050 0.081199
vt 0.093337 0.029307
vt 0.029307 0.093339
vt 0.000000 0.081199
vt 0.081198 0.000000
vt 0.191713 0.255748
vt 0.255743 0.191716
vt 0.285050 0.203856
vt 0.203852 0.285055
vt 0.029307 0.191716
vt 0.093337 0.255748
vt 0.081198 0.285055
vt 0.000000 0.203856
vt 0.164880 0.285055
vt 0.114682 0.285055
vt 0.000000 0.880143
vt 0.000000 0.781765
vt 0.064030 0.717734
vt 0.162406 0.717734
vt 0.226437 0.781765
vt 0.226437 0.880143
vt 0.162406 0.944175
vt 0.064030 0.944175
vt 0.775416 0.552147
vt 0.873794 0.552147
vt 0.873794 0.818818
vt 0.775416 0.818818
vt 0.791141 0.266467
vt 0.692764 0.266467
vt 0.692786 -0.000000
vt 0.791163 -0.000000
vt 0.840667 0.552147
vt 0.775416 0.285476
vt 0.840667 0.285476
vt 0.855309 0.268971
vt 0.855331 0.002504
vt 0.939027 0.552147
vt 0.939027 0.285476
vt 0.447461 0.570867
vt 0.447459 0.837534
vt 0.511493 0.570533
vt 0.511490 0.837201
vt 0.204052 0.658734
vt 0.204070 0.441999
vt 0.216353 0.429725
vt 0.239598 0.429722
vt 0.252007 0.441991
vt 0.254251 0.658734
vt 0.770511 0.787432
vt 0.630750 0.787432
vt 0.630750 0.570531
vt 0.775416 0.570531
vt 0.766649 0.598689
vt 0.656872 0.598689
vt 0.656872 0.777763
vt 0.766649 0.777763
vt 0.861216 0.024878
vt 0.855333 0.000000
vt 1.000000 0.000001
vt 0.999998 0.216919
vt 0.858261 0.216917
vt 0.861322 0.204082
vt 0.971099 0.204083
vt 0.970993 0.024879
vt 0.168299 0.500991
vt 0.168045 0.476449
vt 0.167594 0.432897
vt 0.204052 0.432897
vt 0.204028 0.717734
vt 0.170544 0.717734
vt 0.120365 0.476455
vt 0.120363 0.500999
vt 0.120345 0.717734
vt 0.120369 0.432897
vt 0.775416 0.787432
vt 0.855331 0.216917
vt 0.164880 0.429722
vt 0.114682 0.429722
vt 0.580832 0.570531
vt 0.628896 0.573578
vt 0.630750 0.752633
vt 0.580817 0.749468
vt 0.511493 0.752885
vt 0.559581 0.755662
vt 0.559581 0.865439
vt 0.511493 0.862662
vt 0.561478 0.570531
vt 0.559608 0.749728
vt 0.511493 0.573811
vt 0.580751 0.865294
vt 0.580751 0.755517
vt 0.630749 0.752633
vt 0.630749 0.862410
vt 0.132646 0.488725
vt 0.120374 0.501191
vt 0.168306 0.501106
vt 0.155891 0.488722
vt 0.775416 0.799715
vt 0.630750 0.799715
vt 0.226437 0.859471
vt 0.226437 0.717734
vn 0.7025 0.7116 0.0000
vn 0.0000 -0.0002 -1.0000
vn 0.0000 1.0000 0.0000
vn -1.0000 0.0000 0.0000
vn -0.0000 0.0000 -1.0000
vn -0.7025 -0.7116 0.0000
vn -0.7025 0.7116 0.0000
vn 0.7025 -0.7116 0.0000
vn 0.0000 -1.0000 0.0000
vn -0.0000 0.0000 1.0000
vn 1.0000 0.0000 0.0000
vn -0.0000 1.0000 -0.0088
vn 0.9983 0.0584 0.0000
vn 0.0000 -0.0778 0.9970
vn -0.9983 -0.0584 -0.0000
vn 0.0000 0.0778 -0.9970
vn 0.9668 -0.1956 -0.1647
vn 0.9877 0.1193 -0.1015
vn 0.0000 -0.7650 -0.6440
vn -0.0000 0.7616 -0.6481
usemtl Material.001
s off
f 1/1/1 2/2/1 25/3/1 26/4/1
f 47/5/2 52/6/2 57/7/2 56/8/2
f 15/9/3 8/10/3 20/11/3 23/12/3
f 18/13/4 19/14/4 7/15/4 6/16/4
f 34/17/5 13/18/5 14/19/5 5/20/5 6/21/5 7/22/5 8/23/5 15/24/5 16/25/5 36/26/5
f 5/27/6 17/28/6 18/13/6 6/16/6
f 20/11/7 8/10/7 7/29/7 19/30/7
f 22/31/8 14/32/8 13/33/8 21/34/8
f 15/9/1 23/12/1 24/35/1 16/36/1
f 5/37/9 14/38/9 22/39/9 17/40/9
f 2/41/10 1/42/10 18/43/10 17/44/10
f 4/45/10 3/46/10 20/47/10 19/48/10
f 10/49/10 9/50/10 22/51/10 21/52/10
f 12/53/10 11/54/10 24/55/10 23/56/10
f 9/50/10 2/41/10 17/44/10 22/51/10
f 1/42/10 4/45/10 19/48/10 18/43/10
f 24/55/10 11/54/10 10/49/10 21/52/10 33/57/10 35/58/10
f 3/46/10 12/53/10 23/56/10 20/47/10
f 31/59/10 28/60/10 27/61/10 26/62/10 25/63/10 30/64/10 29/65/10 32/66/10
f 12/67/9 3/68/9 28/69/9 31/70/9
f 4/71/11 1/72/11 26/73/11 27/74/11
f 11/75/6 12/67/6 31/76/6 32/77/6
f 3/78/8 4/71/8 27/74/8 28/79/8
f 10/80/4 11/75/4 32/77/4 29/81/4
f 2/2/3 9/82/3 30/83/3 25/3/3
f 9/82/7 10/84/7 29/85/7 30/83/7
f 37/86/11 55/87/11 56/88/11 57/89/11 58/90/11 38/91/11
f 48/92/9 55/93/9 37/94/9 33/95/9 43/96/9 46/97/9 45/98/9 44/99/9
f 39/100/12 35/101/12 38/102/12 58/103/12 51/104/12 40/105/12 42/106/12 41/107/12
f 54/108/11 53/109/11 36/110/11 16/111/11 24/112/11 35/113/11
f 50/114/11 49/115/11 33/116/11 21/34/11 13/33/11 34/117/11
f 43/96/9 33/95/9 49/118/9 48/92/9 44/99/9
f 40/105/12 51/104/12 54/119/12 35/101/12 39/100/12
f 35/58/10 33/57/10 37/120/10 38/121/10
f 44/122/13 40/123/13 39/124/13 43/125/13
f 45/126/14 42/127/14 40/128/14 44/129/14
f 41/130/15 42/131/15 45/126/15 46/132/15
f 39/133/16 41/134/16 46/135/16 43/136/16
f 47/137/17 48/138/17 49/115/17 50/114/17
f 51/139/18 52/140/18 53/109/18 54/108/18
f 47/141/19 56/142/19 55/93/19 48/92/19
f 51/143/20 58/144/20 57/7/20 52/6/20
f 53/109/11 52/140/11 47/137/11 50/114/11 34/117/11 36/110/11
